M48
; DRILL file {KiCad 8.0.3} date 2024-07-17T21:07:11-0400
; FORMAT={-:-/ absolute / inch / decimal}
; #@! TF.CreationDate,2024-07-17T21:07:11-04:00
; #@! TF.GenerationSoftware,Kicad,Pcbnew,8.0.3
; #@! TF.FileFunction,Plated,1,2,PTH
FMAT,2
INCH
; #@! TA.AperFunction,Plated,PTH,ComponentDrill
T1C0.0079
; #@! TA.AperFunction,Plated,PTH,ViaDrill
T2C0.0118
; #@! TA.AperFunction,Plated,PTH,ComponentDrill
T3C0.0394
%
G90
G05
T1
X5.5417Y-3.9134
X5.5417Y-3.9685
X5.5693Y-3.8858
X5.5693Y-3.9409
X5.5693Y-3.9961
X5.5969Y-3.9134
X5.5969Y-3.9685
X5.6244Y-3.8858
X5.6244Y-3.9409
X5.6244Y-3.9961
X5.652Y-3.9134
X5.652Y-3.9685
T2
X5.397Y-3.3504
X5.538Y-3.48
X5.5572Y-3.4274
X5.5832Y-3.3526
X5.8653Y-2.7047
T3
X5.39Y-4.61
X5.39Y-4.71
X5.39Y-4.81
X5.39Y-4.91
M30
