%TF.GenerationSoftware,KiCad,Pcbnew,8.0.3*%
%TF.CreationDate,2024-07-21T13:05:35-04:00*%
%TF.ProjectId,Mainboard,4d61696e-626f-4617-9264-2e6b69636164,rev?*%
%TF.SameCoordinates,Original*%
%TF.FileFunction,Legend,Bot*%
%TF.FilePolarity,Positive*%
%FSLAX46Y46*%
G04 Gerber Fmt 4.6, Leading zero omitted, Abs format (unit mm)*
G04 Created by KiCad (PCBNEW 8.0.3) date 2024-07-21 13:05:35*
%MOMM*%
%LPD*%
G01*
G04 APERTURE LIST*
%ADD10C,20.000000*%
%ADD11C,0.100000*%
%ADD12C,0.150000*%
%ADD13C,0.120000*%
G04 APERTURE END LIST*
D10*
X174752676Y-101600000D02*
G75*
G02*
X79247324Y-101600000I-47752676J0D01*
G01*
X79247324Y-101600000D02*
G75*
G02*
X174752676Y-101600000I47752676J0D01*
G01*
D11*
X98263419Y-96980951D02*
X98977704Y-96980951D01*
X98977704Y-96980951D02*
X99120561Y-96933332D01*
X99120561Y-96933332D02*
X99215800Y-96838094D01*
X99215800Y-96838094D02*
X99263419Y-96695237D01*
X99263419Y-96695237D02*
X99263419Y-96599999D01*
X99263419Y-97933332D02*
X99263419Y-97457142D01*
X99263419Y-97457142D02*
X98263419Y-97457142D01*
X99168180Y-98838094D02*
X99215800Y-98790475D01*
X99215800Y-98790475D02*
X99263419Y-98647618D01*
X99263419Y-98647618D02*
X99263419Y-98552380D01*
X99263419Y-98552380D02*
X99215800Y-98409523D01*
X99215800Y-98409523D02*
X99120561Y-98314285D01*
X99120561Y-98314285D02*
X99025323Y-98266666D01*
X99025323Y-98266666D02*
X98834847Y-98219047D01*
X98834847Y-98219047D02*
X98691990Y-98219047D01*
X98691990Y-98219047D02*
X98501514Y-98266666D01*
X98501514Y-98266666D02*
X98406276Y-98314285D01*
X98406276Y-98314285D02*
X98311038Y-98409523D01*
X98311038Y-98409523D02*
X98263419Y-98552380D01*
X98263419Y-98552380D02*
X98263419Y-98647618D01*
X98263419Y-98647618D02*
X98311038Y-98790475D01*
X98311038Y-98790475D02*
X98358657Y-98838094D01*
X98263419Y-99552380D02*
X98977704Y-99552380D01*
X98977704Y-99552380D02*
X99120561Y-99504761D01*
X99120561Y-99504761D02*
X99215800Y-99409523D01*
X99215800Y-99409523D02*
X99263419Y-99266666D01*
X99263419Y-99266666D02*
X99263419Y-99171428D01*
X99263419Y-100504761D02*
X99263419Y-100028571D01*
X99263419Y-100028571D02*
X98263419Y-100028571D01*
X99168180Y-101409523D02*
X99215800Y-101361904D01*
X99215800Y-101361904D02*
X99263419Y-101219047D01*
X99263419Y-101219047D02*
X99263419Y-101123809D01*
X99263419Y-101123809D02*
X99215800Y-100980952D01*
X99215800Y-100980952D02*
X99120561Y-100885714D01*
X99120561Y-100885714D02*
X99025323Y-100838095D01*
X99025323Y-100838095D02*
X98834847Y-100790476D01*
X98834847Y-100790476D02*
X98691990Y-100790476D01*
X98691990Y-100790476D02*
X98501514Y-100838095D01*
X98501514Y-100838095D02*
X98406276Y-100885714D01*
X98406276Y-100885714D02*
X98311038Y-100980952D01*
X98311038Y-100980952D02*
X98263419Y-101123809D01*
X98263419Y-101123809D02*
X98263419Y-101219047D01*
X98263419Y-101219047D02*
X98311038Y-101361904D01*
X98311038Y-101361904D02*
X98358657Y-101409523D01*
X98263419Y-102123809D02*
X98977704Y-102123809D01*
X98977704Y-102123809D02*
X99120561Y-102076190D01*
X99120561Y-102076190D02*
X99215800Y-101980952D01*
X99215800Y-101980952D02*
X99263419Y-101838095D01*
X99263419Y-101838095D02*
X99263419Y-101742857D01*
X99263419Y-103076190D02*
X99263419Y-102600000D01*
X99263419Y-102600000D02*
X98263419Y-102600000D01*
X99168180Y-103980952D02*
X99215800Y-103933333D01*
X99215800Y-103933333D02*
X99263419Y-103790476D01*
X99263419Y-103790476D02*
X99263419Y-103695238D01*
X99263419Y-103695238D02*
X99215800Y-103552381D01*
X99215800Y-103552381D02*
X99120561Y-103457143D01*
X99120561Y-103457143D02*
X99025323Y-103409524D01*
X99025323Y-103409524D02*
X98834847Y-103361905D01*
X98834847Y-103361905D02*
X98691990Y-103361905D01*
X98691990Y-103361905D02*
X98501514Y-103409524D01*
X98501514Y-103409524D02*
X98406276Y-103457143D01*
X98406276Y-103457143D02*
X98311038Y-103552381D01*
X98311038Y-103552381D02*
X98263419Y-103695238D01*
X98263419Y-103695238D02*
X98263419Y-103790476D01*
X98263419Y-103790476D02*
X98311038Y-103933333D01*
X98311038Y-103933333D02*
X98358657Y-103980952D01*
X98263419Y-104695238D02*
X98977704Y-104695238D01*
X98977704Y-104695238D02*
X99120561Y-104647619D01*
X99120561Y-104647619D02*
X99215800Y-104552381D01*
X99215800Y-104552381D02*
X99263419Y-104409524D01*
X99263419Y-104409524D02*
X99263419Y-104314286D01*
X99263419Y-105647619D02*
X99263419Y-105171429D01*
X99263419Y-105171429D02*
X98263419Y-105171429D01*
X99168180Y-106552381D02*
X99215800Y-106504762D01*
X99215800Y-106504762D02*
X99263419Y-106361905D01*
X99263419Y-106361905D02*
X99263419Y-106266667D01*
X99263419Y-106266667D02*
X99215800Y-106123810D01*
X99215800Y-106123810D02*
X99120561Y-106028572D01*
X99120561Y-106028572D02*
X99025323Y-105980953D01*
X99025323Y-105980953D02*
X98834847Y-105933334D01*
X98834847Y-105933334D02*
X98691990Y-105933334D01*
X98691990Y-105933334D02*
X98501514Y-105980953D01*
X98501514Y-105980953D02*
X98406276Y-106028572D01*
X98406276Y-106028572D02*
X98311038Y-106123810D01*
X98311038Y-106123810D02*
X98263419Y-106266667D01*
X98263419Y-106266667D02*
X98263419Y-106361905D01*
X98263419Y-106361905D02*
X98311038Y-106504762D01*
X98311038Y-106504762D02*
X98358657Y-106552381D01*
D12*
X141447904Y-90554819D02*
X141447904Y-91364342D01*
X141447904Y-91364342D02*
X141400285Y-91459580D01*
X141400285Y-91459580D02*
X141352666Y-91507200D01*
X141352666Y-91507200D02*
X141257428Y-91554819D01*
X141257428Y-91554819D02*
X141066952Y-91554819D01*
X141066952Y-91554819D02*
X140971714Y-91507200D01*
X140971714Y-91507200D02*
X140924095Y-91459580D01*
X140924095Y-91459580D02*
X140876476Y-91364342D01*
X140876476Y-91364342D02*
X140876476Y-90554819D01*
X139876476Y-91554819D02*
X140447904Y-91554819D01*
X140162190Y-91554819D02*
X140162190Y-90554819D01*
X140162190Y-90554819D02*
X140257428Y-90697676D01*
X140257428Y-90697676D02*
X140352666Y-90792914D01*
X140352666Y-90792914D02*
X140447904Y-90840533D01*
D13*
%TO.C,TP4*%
X145984000Y-102235000D02*
G75*
G02*
X144084000Y-102235000I-950000J0D01*
G01*
X144084000Y-102235000D02*
G75*
G02*
X145984000Y-102235000I950000J0D01*
G01*
%TO.C,C3*%
X145193500Y-76766748D02*
X145193500Y-77289252D01*
X146663500Y-76766748D02*
X146663500Y-77289252D01*
%TO.C,R37*%
X127237258Y-126477500D02*
X126762742Y-126477500D01*
X127237258Y-127522500D02*
X126762742Y-127522500D01*
%TO.C,R2*%
X129269258Y-67041500D02*
X128794742Y-67041500D01*
X129269258Y-68086500D02*
X128794742Y-68086500D01*
%TO.C,C1*%
X127146164Y-90572000D02*
X127361836Y-90572000D01*
X127146164Y-91292000D02*
X127361836Y-91292000D01*
%TO.C,Q1*%
X123552500Y-130880000D02*
X123552500Y-137300000D01*
X123822500Y-130880000D02*
X123552500Y-130880000D01*
X130182500Y-130880000D02*
X130452500Y-130880000D01*
X130452500Y-130880000D02*
X130452500Y-137300000D01*
X123862500Y-129460000D02*
X123532500Y-129700000D01*
X123532500Y-129220000D01*
X123862500Y-129460000D01*
G36*
X123862500Y-129460000D02*
G01*
X123532500Y-129700000D01*
X123532500Y-129220000D01*
X123862500Y-129460000D01*
G37*
%TO.C,TP5*%
X145984000Y-99695000D02*
G75*
G02*
X144084000Y-99695000I-950000J0D01*
G01*
X144084000Y-99695000D02*
G75*
G02*
X145984000Y-99695000I950000J0D01*
G01*
%TO.C,L1*%
X142774000Y-78916000D02*
X142774000Y-78766000D01*
X142774000Y-83136000D02*
X142774000Y-83286000D01*
X147294000Y-78766000D02*
X142774000Y-78766000D01*
X147294000Y-78916000D02*
X147294000Y-78766000D01*
X147294000Y-83136000D02*
X147294000Y-83286000D01*
X147294000Y-83286000D02*
X142774000Y-83286000D01*
%TO.C,TP2*%
X145984000Y-107315000D02*
G75*
G02*
X144084000Y-107315000I-950000J0D01*
G01*
X144084000Y-107315000D02*
G75*
G02*
X145984000Y-107315000I950000J0D01*
G01*
%TO.C,U2*%
X141694000Y-75402000D02*
X142494000Y-75402000D01*
X141694000Y-78522000D02*
X142494000Y-78522000D01*
X143294000Y-75402000D02*
X142494000Y-75402000D01*
X143294000Y-78522000D02*
X142494000Y-78522000D01*
X143794000Y-75452000D02*
X143554000Y-75122000D01*
X144034000Y-75122000D01*
X143794000Y-75452000D01*
G36*
X143794000Y-75452000D02*
G01*
X143554000Y-75122000D01*
X144034000Y-75122000D01*
X143794000Y-75452000D01*
G37*
%TO.C,Q2*%
X148919062Y-137443588D02*
X152692644Y-142637477D01*
X149137497Y-137284886D02*
X148919062Y-137443588D01*
X154282845Y-133546572D02*
X154501279Y-133387870D01*
X154501279Y-133387870D02*
X158274861Y-138581759D01*
X148335202Y-136112570D02*
X148209295Y-136500704D01*
X147927158Y-136112375D01*
X148335202Y-136112570D01*
G36*
X148335202Y-136112570D02*
G01*
X148209295Y-136500704D01*
X147927158Y-136112375D01*
X148335202Y-136112570D01*
G37*
%TO.C,C5*%
X142239264Y-73315200D02*
X142454936Y-73315200D01*
X142239264Y-74035200D02*
X142454936Y-74035200D01*
%TO.C,TP3*%
X145984000Y-104775000D02*
G75*
G02*
X144084000Y-104775000I-950000J0D01*
G01*
X144084000Y-104775000D02*
G75*
G02*
X145984000Y-104775000I950000J0D01*
G01*
%TO.C,R4*%
X149617828Y-131517832D02*
X149233936Y-131796745D01*
X150232064Y-132363255D02*
X149848172Y-132642168D01*
%TO.C,C2*%
X138936000Y-77075420D02*
X138936000Y-77356580D01*
X139956000Y-77075420D02*
X139956000Y-77356580D01*
%TO.C,J1*%
X123333471Y-111958210D02*
X124663471Y-111958210D01*
X123333471Y-113288210D02*
X123333471Y-111958210D01*
X125933471Y-114618210D02*
X125933471Y-111958210D01*
X133613471Y-111958210D02*
X125933471Y-111958210D01*
X133613471Y-114618210D02*
X125933471Y-114618210D01*
X133613471Y-114618210D02*
X133613471Y-111958210D01*
%TO.C,C6*%
X124332420Y-90422000D02*
X124613580Y-90422000D01*
X124332420Y-91442000D02*
X124613580Y-91442000D01*
%TO.C,U1*%
X116386000Y-110800000D02*
X116386000Y-92400000D01*
X122586000Y-92400000D02*
X116386000Y-92400000D01*
X122586000Y-110800000D02*
X116386000Y-110800000D01*
X141236000Y-110800000D02*
X142236000Y-110800000D01*
X142236000Y-92400000D02*
X141236000Y-92400000D01*
X142236000Y-93900000D02*
X142236000Y-92400000D01*
X142236000Y-109300000D02*
X142236000Y-110800000D01*
X123261000Y-92400000D02*
X122761000Y-92400000D01*
X123261000Y-91900000D01*
X123261000Y-92400000D01*
G36*
X123261000Y-92400000D02*
G01*
X122761000Y-92400000D01*
X123261000Y-91900000D01*
X123261000Y-92400000D01*
G37*
%TO.C,R35*%
X142213359Y-74296000D02*
X142520641Y-74296000D01*
X142213359Y-75056000D02*
X142520641Y-75056000D01*
%TO.C,R1*%
X126000742Y-88885500D02*
X126475258Y-88885500D01*
X126000742Y-89930500D02*
X126475258Y-89930500D01*
%TO.C,C4*%
X147098500Y-76766748D02*
X147098500Y-77289252D01*
X148568500Y-76766748D02*
X148568500Y-77289252D01*
%TO.C,R36*%
X140181359Y-74296000D02*
X140488641Y-74296000D01*
X140181359Y-75056000D02*
X140488641Y-75056000D01*
%TO.C,R3*%
X124730742Y-74661500D02*
X125205258Y-74661500D01*
X124730742Y-75706500D02*
X125205258Y-75706500D01*
%TO.C,SW1*%
X139773999Y-117580000D02*
X139774000Y-114680000D01*
X140264000Y-114190000D02*
X139774000Y-114680000D01*
X140264000Y-118070000D02*
X139773999Y-117580000D01*
X141454000Y-113409999D02*
X143534000Y-113410001D01*
X141454000Y-118849999D02*
X143534000Y-118850001D01*
X144724000Y-114190000D02*
X145214001Y-114680000D01*
X144724000Y-118070000D02*
X145214000Y-117580000D01*
X145214000Y-117580000D02*
X145214001Y-114680000D01*
%TO.C,TP1*%
X148274000Y-67564000D02*
G75*
G02*
X146874000Y-67564000I-700000J0D01*
G01*
X146874000Y-67564000D02*
G75*
G02*
X148274000Y-67564000I700000J0D01*
G01*
%TO.C,SW2*%
X122938000Y-85726000D02*
X122938000Y-82826000D01*
X123428000Y-82336000D02*
X122938000Y-82826000D01*
X123428000Y-86216000D02*
X122938000Y-85726000D01*
X124618000Y-81556000D02*
X126698000Y-81556000D01*
X124618000Y-86996000D02*
X126698000Y-86996000D01*
X127888000Y-82336000D02*
X128378000Y-82826000D01*
X127888000Y-86216000D02*
X128378000Y-85726000D01*
X128378000Y-85726000D02*
X128378000Y-82826000D01*
%TD*%
M02*
