%TF.GenerationSoftware,KiCad,Pcbnew,8.0.3*%
%TF.CreationDate,2024-07-17T21:07:09-04:00*%
%TF.ProjectId,Mainboard,4d61696e-626f-4617-9264-2e6b69636164,rev?*%
%TF.SameCoordinates,Original*%
%TF.FileFunction,Legend,Bot*%
%TF.FilePolarity,Positive*%
%FSLAX46Y46*%
G04 Gerber Fmt 4.6, Leading zero omitted, Abs format (unit mm)*
G04 Created by KiCad (PCBNEW 8.0.3) date 2024-07-17 21:07:09*
%MOMM*%
%LPD*%
G01*
G04 APERTURE LIST*
%ADD10C,0.150000*%
%ADD11C,0.120000*%
G04 APERTURE END LIST*
D10*
X136564666Y-112340580D02*
X136612285Y-112388200D01*
X136612285Y-112388200D02*
X136755142Y-112435819D01*
X136755142Y-112435819D02*
X136850380Y-112435819D01*
X136850380Y-112435819D02*
X136993237Y-112388200D01*
X136993237Y-112388200D02*
X137088475Y-112292961D01*
X137088475Y-112292961D02*
X137136094Y-112197723D01*
X137136094Y-112197723D02*
X137183713Y-112007247D01*
X137183713Y-112007247D02*
X137183713Y-111864390D01*
X137183713Y-111864390D02*
X137136094Y-111673914D01*
X137136094Y-111673914D02*
X137088475Y-111578676D01*
X137088475Y-111578676D02*
X136993237Y-111483438D01*
X136993237Y-111483438D02*
X136850380Y-111435819D01*
X136850380Y-111435819D02*
X136755142Y-111435819D01*
X136755142Y-111435819D02*
X136612285Y-111483438D01*
X136612285Y-111483438D02*
X136564666Y-111531057D01*
X135612285Y-112435819D02*
X136183713Y-112435819D01*
X135897999Y-112435819D02*
X135897999Y-111435819D01*
X135897999Y-111435819D02*
X135993237Y-111578676D01*
X135993237Y-111578676D02*
X136088475Y-111673914D01*
X136088475Y-111673914D02*
X136183713Y-111721533D01*
X148248666Y-103799819D02*
X148581999Y-103323628D01*
X148820094Y-103799819D02*
X148820094Y-102799819D01*
X148820094Y-102799819D02*
X148439142Y-102799819D01*
X148439142Y-102799819D02*
X148343904Y-102847438D01*
X148343904Y-102847438D02*
X148296285Y-102895057D01*
X148296285Y-102895057D02*
X148248666Y-102990295D01*
X148248666Y-102990295D02*
X148248666Y-103133152D01*
X148248666Y-103133152D02*
X148296285Y-103228390D01*
X148296285Y-103228390D02*
X148343904Y-103276009D01*
X148343904Y-103276009D02*
X148439142Y-103323628D01*
X148439142Y-103323628D02*
X148820094Y-103323628D01*
X147296285Y-103799819D02*
X147867713Y-103799819D01*
X147581999Y-103799819D02*
X147581999Y-102799819D01*
X147581999Y-102799819D02*
X147677237Y-102942676D01*
X147677237Y-102942676D02*
X147772475Y-103037914D01*
X147772475Y-103037914D02*
X147867713Y-103085533D01*
X150177332Y-112885200D02*
X150034475Y-112932819D01*
X150034475Y-112932819D02*
X149796380Y-112932819D01*
X149796380Y-112932819D02*
X149701142Y-112885200D01*
X149701142Y-112885200D02*
X149653523Y-112837580D01*
X149653523Y-112837580D02*
X149605904Y-112742342D01*
X149605904Y-112742342D02*
X149605904Y-112647104D01*
X149605904Y-112647104D02*
X149653523Y-112551866D01*
X149653523Y-112551866D02*
X149701142Y-112504247D01*
X149701142Y-112504247D02*
X149796380Y-112456628D01*
X149796380Y-112456628D02*
X149986856Y-112409009D01*
X149986856Y-112409009D02*
X150082094Y-112361390D01*
X150082094Y-112361390D02*
X150129713Y-112313771D01*
X150129713Y-112313771D02*
X150177332Y-112218533D01*
X150177332Y-112218533D02*
X150177332Y-112123295D01*
X150177332Y-112123295D02*
X150129713Y-112028057D01*
X150129713Y-112028057D02*
X150082094Y-111980438D01*
X150082094Y-111980438D02*
X149986856Y-111932819D01*
X149986856Y-111932819D02*
X149748761Y-111932819D01*
X149748761Y-111932819D02*
X149605904Y-111980438D01*
X149272570Y-111932819D02*
X149034475Y-112932819D01*
X149034475Y-112932819D02*
X148843999Y-112218533D01*
X148843999Y-112218533D02*
X148653523Y-112932819D01*
X148653523Y-112932819D02*
X148415428Y-111932819D01*
X147510666Y-112932819D02*
X148082094Y-112932819D01*
X147796380Y-112932819D02*
X147796380Y-111932819D01*
X147796380Y-111932819D02*
X147891618Y-112075676D01*
X147891618Y-112075676D02*
X147986856Y-112170914D01*
X147986856Y-112170914D02*
X148082094Y-112218533D01*
X151861904Y-90554819D02*
X151861904Y-91364342D01*
X151861904Y-91364342D02*
X151814285Y-91459580D01*
X151814285Y-91459580D02*
X151766666Y-91507200D01*
X151766666Y-91507200D02*
X151671428Y-91554819D01*
X151671428Y-91554819D02*
X151480952Y-91554819D01*
X151480952Y-91554819D02*
X151385714Y-91507200D01*
X151385714Y-91507200D02*
X151338095Y-91459580D01*
X151338095Y-91459580D02*
X151290476Y-91364342D01*
X151290476Y-91364342D02*
X151290476Y-90554819D01*
X150290476Y-91554819D02*
X150861904Y-91554819D01*
X150576190Y-91554819D02*
X150576190Y-90554819D01*
X150576190Y-90554819D02*
X150671428Y-90697676D01*
X150671428Y-90697676D02*
X150766666Y-90792914D01*
X150766666Y-90792914D02*
X150861904Y-90840533D01*
D11*
%TO.C,L1*%
X136683500Y-79782000D02*
X141203500Y-79782000D01*
X136683500Y-84302000D02*
X141203500Y-84302000D01*
X141203500Y-79932000D02*
X141203500Y-79782000D01*
X136683500Y-79932000D02*
X136683500Y-79782000D01*
X141203500Y-84152000D02*
X141203500Y-84302000D01*
X136683500Y-84152000D02*
X136683500Y-84302000D01*
%TO.C,C2*%
X144021500Y-85992580D02*
X144021500Y-85711420D01*
X145041500Y-85992580D02*
X145041500Y-85711420D01*
%TO.C,C1*%
X136257420Y-112901000D02*
X136538580Y-112901000D01*
X136257420Y-113921000D02*
X136538580Y-113921000D01*
%TO.C,C3*%
X137314000Y-86301252D02*
X137314000Y-85778748D01*
X138784000Y-86301252D02*
X138784000Y-85778748D01*
%TO.C,C4*%
X135409000Y-86301252D02*
X135409000Y-85778748D01*
X136879000Y-86301252D02*
X136879000Y-85778748D01*
%TO.C,R36*%
X143796141Y-88772000D02*
X143488859Y-88772000D01*
X143796141Y-88012000D02*
X143488859Y-88012000D01*
%TO.C,R35*%
X141764141Y-88772000D02*
X141456859Y-88772000D01*
X141764141Y-88012000D02*
X141456859Y-88012000D01*
%TO.C,R1*%
X147844742Y-104252500D02*
X148319258Y-104252500D01*
X147844742Y-105297500D02*
X148319258Y-105297500D01*
%TO.C,SW1*%
X151564000Y-115038000D02*
X151564000Y-117118000D01*
X150784000Y-113848000D02*
X150294000Y-113358000D01*
X147394000Y-113358000D02*
X150294000Y-113358000D01*
X150784000Y-118308000D02*
X150294000Y-118798000D01*
X147394000Y-118798000D02*
X150294000Y-118798000D01*
X146904000Y-113848000D02*
X147394000Y-113358000D01*
X146904000Y-118308000D02*
X147394000Y-118798000D01*
X146124000Y-115038000D02*
X146124000Y-117118000D01*
%TO.C,C5*%
X141738236Y-89752800D02*
X141522564Y-89752800D01*
X141738236Y-89032800D02*
X141522564Y-89032800D01*
%TO.C,U2*%
X140683500Y-87666000D02*
X141483500Y-87666000D01*
X142283500Y-87666000D02*
X141483500Y-87666000D01*
X140683500Y-84546000D02*
X141483500Y-84546000D01*
X142283500Y-84546000D02*
X141483500Y-84546000D01*
X140423500Y-87946000D02*
X139943500Y-87946000D01*
X140183500Y-87616000D01*
X140423500Y-87946000D01*
G36*
X140423500Y-87946000D02*
G01*
X139943500Y-87946000D01*
X140183500Y-87616000D01*
X140423500Y-87946000D01*
G37*
%TO.C,U1*%
X133000000Y-92400000D02*
X126800000Y-92400000D01*
X126800000Y-110800000D02*
X126800000Y-92400000D01*
X152650000Y-92400000D02*
X151650000Y-92400000D01*
X152650000Y-93900000D02*
X152650000Y-92400000D01*
X133000000Y-110800000D02*
X126800000Y-110800000D01*
X152650000Y-109300000D02*
X152650000Y-110800000D01*
X151650000Y-110800000D02*
X152650000Y-110800000D01*
X133675000Y-92400000D02*
X133175000Y-92400000D01*
X133675000Y-91900000D01*
X133675000Y-92400000D01*
G36*
X133675000Y-92400000D02*
G01*
X133175000Y-92400000D01*
X133675000Y-91900000D01*
X133675000Y-92400000D01*
G37*
%TO.C,TP1*%
X149676726Y-67565410D02*
G75*
G02*
X148276726Y-67565410I-700000J0D01*
G01*
X148276726Y-67565410D02*
G75*
G02*
X149676726Y-67565410I700000J0D01*
G01*
%TD*%
M02*
