%TF.GenerationSoftware,KiCad,Pcbnew,8.0.3*%
%TF.CreationDate,2024-07-17T21:07:09-04:00*%
%TF.ProjectId,Mainboard,4d61696e-626f-4617-9264-2e6b69636164,rev?*%
%TF.SameCoordinates,Original*%
%TF.FileFunction,Copper,L1,Top*%
%TF.FilePolarity,Positive*%
%FSLAX46Y46*%
G04 Gerber Fmt 4.6, Leading zero omitted, Abs format (unit mm)*
G04 Created by KiCad (PCBNEW 8.0.3) date 2024-07-17 21:07:09*
%MOMM*%
%LPD*%
G01*
G04 APERTURE LIST*
G04 Aperture macros list*
%AMRoundRect*
0 Rectangle with rounded corners*
0 $1 Rounding radius*
0 $2 $3 $4 $5 $6 $7 $8 $9 X,Y pos of 4 corners*
0 Add a 4 corners polygon primitive as box body*
4,1,4,$2,$3,$4,$5,$6,$7,$8,$9,$2,$3,0*
0 Add four circle primitives for the rounded corners*
1,1,$1+$1,$2,$3*
1,1,$1+$1,$4,$5*
1,1,$1+$1,$6,$7*
1,1,$1+$1,$8,$9*
0 Add four rect primitives between the rounded corners*
20,1,$1+$1,$2,$3,$4,$5,0*
20,1,$1+$1,$4,$5,$6,$7,0*
20,1,$1+$1,$6,$7,$8,$9,0*
20,1,$1+$1,$8,$9,$2,$3,0*%
%AMRotRect*
0 Rectangle, with rotation*
0 The origin of the aperture is its center*
0 $1 length*
0 $2 width*
0 $3 Rotation angle, in degrees counterclockwise*
0 Add horizontal line*
21,1,$1,$2,0,0,$3*%
G04 Aperture macros list end*
%TA.AperFunction,SMDPad,CuDef*%
%ADD10RoundRect,0.135000X-0.135000X-0.185000X0.135000X-0.185000X0.135000X0.185000X-0.135000X0.185000X0*%
%TD*%
%TA.AperFunction,SMDPad,CuDef*%
%ADD11RoundRect,0.200000X-0.200000X-0.275000X0.200000X-0.275000X0.200000X0.275000X-0.200000X0.275000X0*%
%TD*%
%TA.AperFunction,SMDPad,CuDef*%
%ADD12RotRect,0.700000X0.700000X324.000000*%
%TD*%
%TA.AperFunction,SMDPad,CuDef*%
%ADD13RotRect,0.700000X0.700000X288.000000*%
%TD*%
%TA.AperFunction,SMDPad,CuDef*%
%ADD14RotRect,0.700000X0.700000X252.000000*%
%TD*%
%TA.AperFunction,SMDPad,CuDef*%
%ADD15RotRect,0.700000X0.700000X216.000000*%
%TD*%
%TA.AperFunction,SMDPad,CuDef*%
%ADD16R,0.700000X0.700000*%
%TD*%
%TA.AperFunction,SMDPad,CuDef*%
%ADD17RotRect,0.700000X0.700000X144.000000*%
%TD*%
%TA.AperFunction,SMDPad,CuDef*%
%ADD18RotRect,0.700000X0.700000X108.000000*%
%TD*%
%TA.AperFunction,SMDPad,CuDef*%
%ADD19RotRect,0.700000X0.700000X72.000000*%
%TD*%
%TA.AperFunction,SMDPad,CuDef*%
%ADD20RotRect,0.700000X0.700000X36.000000*%
%TD*%
%TA.AperFunction,SMDPad,CuDef*%
%ADD21RoundRect,0.200000X0.104923X-0.323444X0.340037X0.000162X-0.104923X0.323444X-0.340037X-0.000162X0*%
%TD*%
%TA.AperFunction,SMDPad,CuDef*%
%ADD22RotRect,1.250000X2.200000X324.000000*%
%TD*%
%TA.AperFunction,SMDPad,CuDef*%
%ADD23RotRect,2.200000X2.200000X324.000000*%
%TD*%
%TA.AperFunction,SMDPad,CuDef*%
%ADD24RoundRect,0.200000X-0.105232X-0.323344X0.275191X-0.199737X0.105232X0.323344X-0.275191X0.199737X0*%
%TD*%
%TA.AperFunction,SMDPad,CuDef*%
%ADD25RotRect,1.250000X2.200000X288.000000*%
%TD*%
%TA.AperFunction,SMDPad,CuDef*%
%ADD26RotRect,2.200000X2.200000X288.000000*%
%TD*%
%TA.AperFunction,SMDPad,CuDef*%
%ADD27RoundRect,0.200000X-0.275191X-0.199737X0.105232X-0.323344X0.275191X0.199737X-0.105232X0.323344X0*%
%TD*%
%TA.AperFunction,SMDPad,CuDef*%
%ADD28RotRect,1.250000X2.200000X252.000000*%
%TD*%
%TA.AperFunction,SMDPad,CuDef*%
%ADD29RotRect,2.200000X2.200000X252.000000*%
%TD*%
%TA.AperFunction,SMDPad,CuDef*%
%ADD30RoundRect,0.200000X-0.340037X0.000162X-0.104923X-0.323444X0.340037X-0.000162X0.104923X0.323444X0*%
%TD*%
%TA.AperFunction,SMDPad,CuDef*%
%ADD31RotRect,1.250000X2.200000X216.000000*%
%TD*%
%TA.AperFunction,SMDPad,CuDef*%
%ADD32RotRect,2.200000X2.200000X216.000000*%
%TD*%
%TA.AperFunction,SMDPad,CuDef*%
%ADD33RoundRect,0.200000X-0.275000X0.200000X-0.275000X-0.200000X0.275000X-0.200000X0.275000X0.200000X0*%
%TD*%
%TA.AperFunction,SMDPad,CuDef*%
%ADD34R,1.250000X2.200000*%
%TD*%
%TA.AperFunction,SMDPad,CuDef*%
%ADD35R,2.200000X2.200000*%
%TD*%
%TA.AperFunction,SMDPad,CuDef*%
%ADD36RoundRect,0.200000X-0.104923X0.323444X-0.340037X-0.000162X0.104923X-0.323444X0.340037X0.000162X0*%
%TD*%
%TA.AperFunction,SMDPad,CuDef*%
%ADD37RotRect,1.250000X2.200000X144.000000*%
%TD*%
%TA.AperFunction,SMDPad,CuDef*%
%ADD38RotRect,2.200000X2.200000X144.000000*%
%TD*%
%TA.AperFunction,SMDPad,CuDef*%
%ADD39RoundRect,0.200000X0.105232X0.323344X-0.275191X0.199737X-0.105232X-0.323344X0.275191X-0.199737X0*%
%TD*%
%TA.AperFunction,SMDPad,CuDef*%
%ADD40RotRect,1.250000X2.200000X108.000000*%
%TD*%
%TA.AperFunction,SMDPad,CuDef*%
%ADD41RotRect,2.200000X2.200000X108.000000*%
%TD*%
%TA.AperFunction,SMDPad,CuDef*%
%ADD42RoundRect,0.200000X0.275191X0.199737X-0.105232X0.323344X-0.275191X-0.199737X0.105232X-0.323344X0*%
%TD*%
%TA.AperFunction,SMDPad,CuDef*%
%ADD43RotRect,1.250000X2.200000X72.000000*%
%TD*%
%TA.AperFunction,SMDPad,CuDef*%
%ADD44RotRect,2.200000X2.200000X72.000000*%
%TD*%
%TA.AperFunction,SMDPad,CuDef*%
%ADD45RoundRect,0.200000X0.340037X-0.000162X0.104923X0.323444X-0.340037X0.000162X-0.104923X-0.323444X0*%
%TD*%
%TA.AperFunction,SMDPad,CuDef*%
%ADD46RotRect,1.250000X2.200000X36.000000*%
%TD*%
%TA.AperFunction,SMDPad,CuDef*%
%ADD47RotRect,2.200000X2.200000X36.000000*%
%TD*%
%TA.AperFunction,SMDPad,CuDef*%
%ADD48RoundRect,0.200000X0.199737X-0.275191X0.323344X0.105232X-0.199737X0.275191X-0.323344X-0.105232X0*%
%TD*%
%TA.AperFunction,SMDPad,CuDef*%
%ADD49RotRect,2.200000X2.200000X342.000000*%
%TD*%
%TA.AperFunction,SMDPad,CuDef*%
%ADD50RotRect,1.250000X2.200000X342.000000*%
%TD*%
%TA.AperFunction,SMDPad,CuDef*%
%ADD51RoundRect,0.200000X-0.000162X-0.340037X0.323444X-0.104923X0.000162X0.340037X-0.323444X0.104923X0*%
%TD*%
%TA.AperFunction,SMDPad,CuDef*%
%ADD52RotRect,2.200000X2.200000X306.000000*%
%TD*%
%TA.AperFunction,SMDPad,CuDef*%
%ADD53RotRect,1.250000X2.200000X306.000000*%
%TD*%
%TA.AperFunction,SMDPad,CuDef*%
%ADD54R,2.200000X1.250000*%
%TD*%
%TA.AperFunction,SMDPad,CuDef*%
%ADD55RoundRect,0.200000X-0.323444X-0.104923X0.000162X-0.340037X0.323444X0.104923X-0.000162X0.340037X0*%
%TD*%
%TA.AperFunction,SMDPad,CuDef*%
%ADD56RotRect,2.200000X2.200000X234.000000*%
%TD*%
%TA.AperFunction,SMDPad,CuDef*%
%ADD57RotRect,1.250000X2.200000X234.000000*%
%TD*%
%TA.AperFunction,SMDPad,CuDef*%
%ADD58RoundRect,0.200000X-0.323344X0.105232X-0.199737X-0.275191X0.323344X-0.105232X0.199737X0.275191X0*%
%TD*%
%TA.AperFunction,SMDPad,CuDef*%
%ADD59RotRect,2.200000X2.200000X198.000000*%
%TD*%
%TA.AperFunction,SMDPad,CuDef*%
%ADD60RotRect,1.250000X2.200000X198.000000*%
%TD*%
%TA.AperFunction,SMDPad,CuDef*%
%ADD61RoundRect,0.200000X-0.199737X0.275191X-0.323344X-0.105232X0.199737X-0.275191X0.323344X0.105232X0*%
%TD*%
%TA.AperFunction,SMDPad,CuDef*%
%ADD62RotRect,2.200000X2.200000X162.000000*%
%TD*%
%TA.AperFunction,SMDPad,CuDef*%
%ADD63RotRect,1.250000X2.200000X162.000000*%
%TD*%
%TA.AperFunction,SMDPad,CuDef*%
%ADD64RoundRect,0.200000X0.000162X0.340037X-0.323444X0.104923X-0.000162X-0.340037X0.323444X-0.104923X0*%
%TD*%
%TA.AperFunction,SMDPad,CuDef*%
%ADD65RotRect,2.200000X2.200000X126.000000*%
%TD*%
%TA.AperFunction,SMDPad,CuDef*%
%ADD66RotRect,1.250000X2.200000X126.000000*%
%TD*%
%TA.AperFunction,SMDPad,CuDef*%
%ADD67RoundRect,0.200000X0.200000X0.275000X-0.200000X0.275000X-0.200000X-0.275000X0.200000X-0.275000X0*%
%TD*%
%TA.AperFunction,SMDPad,CuDef*%
%ADD68RoundRect,0.200000X0.323444X0.104923X-0.000162X0.340037X-0.323444X-0.104923X0.000162X-0.340037X0*%
%TD*%
%TA.AperFunction,SMDPad,CuDef*%
%ADD69RotRect,2.200000X2.200000X54.000000*%
%TD*%
%TA.AperFunction,SMDPad,CuDef*%
%ADD70RotRect,1.250000X2.200000X54.000000*%
%TD*%
%TA.AperFunction,SMDPad,CuDef*%
%ADD71RoundRect,0.200000X0.323344X-0.105232X0.199737X0.275191X-0.323344X0.105232X-0.199737X-0.275191X0*%
%TD*%
%TA.AperFunction,SMDPad,CuDef*%
%ADD72RotRect,2.200000X2.200000X18.000000*%
%TD*%
%TA.AperFunction,SMDPad,CuDef*%
%ADD73RotRect,1.250000X2.200000X18.000000*%
%TD*%
%TA.AperFunction,SMDPad,CuDef*%
%ADD74RoundRect,0.200000X0.275000X-0.200000X0.275000X0.200000X-0.275000X0.200000X-0.275000X-0.200000X0*%
%TD*%
%TA.AperFunction,ComponentPad*%
%ADD75R,1.700000X1.700000*%
%TD*%
%TA.AperFunction,ComponentPad*%
%ADD76O,1.700000X1.700000*%
%TD*%
%TA.AperFunction,HeatsinkPad*%
%ADD77C,0.600000*%
%TD*%
%TA.AperFunction,ViaPad*%
%ADD78C,0.600000*%
%TD*%
%TA.AperFunction,Conductor*%
%ADD79C,0.200000*%
%TD*%
%TA.AperFunction,Conductor*%
%ADD80C,0.300000*%
%TD*%
%TA.AperFunction,Conductor*%
%ADD81C,0.500000*%
%TD*%
G04 APERTURE END LIST*
D10*
%TO.P,R4,1*%
%TO.N,Net-(J2-SHIELD)*%
X109790000Y-95250000D03*
%TO.P,R4,2*%
%TO.N,GND*%
X110810000Y-95250000D03*
%TD*%
D11*
%TO.P,R2,1*%
%TO.N,Net-(J2-CC1)*%
X100458000Y-93472000D03*
%TO.P,R2,2*%
%TO.N,GND*%
X102108000Y-93472000D03*
%TD*%
%TO.P,R3,1*%
%TO.N,Net-(J2-CC2)*%
X112142000Y-90424000D03*
%TO.P,R3,2*%
%TO.N,GND*%
X113792000Y-90424000D03*
%TD*%
D12*
%TO.P,D40,1,DOUT*%
%TO.N,Net-(D40-DOUT)*%
X148977649Y-69793670D03*
%TO.P,D40,2,VSS*%
%TO.N,GND*%
X148331086Y-70683589D03*
%TO.P,D40,3,DIN*%
%TO.N,Net-(D39-DOUT)*%
X149811587Y-71759236D03*
%TO.P,D40,4,VDD*%
%TO.N,+5V*%
X150458150Y-70869317D03*
%TD*%
D13*
%TO.P,D39,1,DOUT*%
%TO.N,Net-(D39-DOUT)*%
X163475584Y-88786277D03*
%TO.P,D39,2,VSS*%
%TO.N,GND*%
X162429421Y-89126196D03*
%TO.P,D39,3,DIN*%
%TO.N,Net-(D38-DOUT)*%
X162994922Y-90866629D03*
%TO.P,D39,4,VDD*%
%TO.N,+5V*%
X164041085Y-90526710D03*
%TD*%
D14*
%TO.P,D38,1,DOUT*%
%TO.N,Net-(D38-DOUT)*%
X164041085Y-112673290D03*
%TO.P,D38,2,VSS*%
%TO.N,GND*%
X162994922Y-112333371D03*
%TO.P,D38,3,DIN*%
%TO.N,Net-(D37-DOUT)*%
X162429421Y-114073804D03*
%TO.P,D38,4,VDD*%
%TO.N,+5V*%
X163475584Y-114413723D03*
%TD*%
D15*
%TO.P,D37,1,DOUT*%
%TO.N,Net-(D37-DOUT)*%
X150458150Y-132330683D03*
%TO.P,D37,2,VSS*%
%TO.N,GND*%
X149811587Y-131440764D03*
%TO.P,D37,3,DIN*%
%TO.N,Net-(D36-DOUT)*%
X148331086Y-132516411D03*
%TO.P,D37,4,VDD*%
%TO.N,+5V*%
X148977649Y-133406330D03*
%TD*%
D16*
%TO.P,D36,1,DOUT*%
%TO.N,Net-(D36-DOUT)*%
X127915000Y-140250000D03*
%TO.P,D36,2,VSS*%
%TO.N,GND*%
X127915000Y-139150000D03*
%TO.P,D36,3,DIN*%
%TO.N,Net-(D35-DOUT)*%
X126085000Y-139150000D03*
%TO.P,D36,4,VDD*%
%TO.N,+5V*%
X126085000Y-140250000D03*
%TD*%
D17*
%TO.P,D35,1,DOUT*%
%TO.N,Net-(D35-DOUT)*%
X105022351Y-133406330D03*
%TO.P,D35,2,VSS*%
%TO.N,GND*%
X105668914Y-132516411D03*
%TO.P,D35,3,DIN*%
%TO.N,Net-(D34-DOUT)*%
X104188413Y-131440764D03*
%TO.P,D35,4,VDD*%
%TO.N,+5V*%
X103541850Y-132330683D03*
%TD*%
D18*
%TO.P,D34,1,DOUT*%
%TO.N,Net-(D34-DOUT)*%
X90524416Y-114413723D03*
%TO.P,D34,2,VSS*%
%TO.N,GND*%
X91570579Y-114073804D03*
%TO.P,D34,3,DIN*%
%TO.N,Net-(D33-DOUT)*%
X91005078Y-112333371D03*
%TO.P,D34,4,VDD*%
%TO.N,+5V*%
X89958915Y-112673290D03*
%TD*%
D19*
%TO.P,D33,1,DOUT*%
%TO.N,Net-(D33-DOUT)*%
X89958915Y-90526710D03*
%TO.P,D33,2,VSS*%
%TO.N,GND*%
X91005078Y-90866629D03*
%TO.P,D33,3,DIN*%
%TO.N,Net-(D32-DOUT)*%
X91570579Y-89126196D03*
%TO.P,D33,4,VDD*%
%TO.N,+5V*%
X90524416Y-88786277D03*
%TD*%
D20*
%TO.P,D32,1,DOUT*%
%TO.N,Net-(D32-DOUT)*%
X103541850Y-70869317D03*
%TO.P,D32,2,VSS*%
%TO.N,GND*%
X104188413Y-71759236D03*
%TO.P,D32,3,DIN*%
%TO.N,Net-(D31-DOUT)*%
X105668914Y-70683589D03*
%TO.P,D32,4,VDD*%
%TO.N,+5V*%
X105022351Y-69793670D03*
%TD*%
D16*
%TO.P,D31,1,DOUT*%
%TO.N,Net-(D31-DOUT)*%
X126085000Y-62950000D03*
%TO.P,D31,2,VSS*%
%TO.N,GND*%
X126085000Y-64050000D03*
%TO.P,D31,3,DIN*%
%TO.N,CTRL_2812B*%
X127915000Y-64050000D03*
%TO.P,D31,4,VDD*%
%TO.N,+5V*%
X127915000Y-62950000D03*
%TD*%
D21*
%TO.P,R34,2*%
%TO.N,Net-(D30-A)*%
X159849648Y-124446910D03*
%TO.P,R34,1*%
%TO.N,+3V3*%
X158879802Y-125781788D03*
%TD*%
D22*
%TO.P,D30,2,A*%
%TO.N,Net-(D30-A)*%
X157908494Y-124056336D03*
D23*
%TO.P,D30,1,K*%
%TO.N,Net-(D21-K)*%
X156067981Y-122719124D03*
%TD*%
D24*
%TO.P,R33,2*%
%TO.N,Net-(D29-A)*%
X140146847Y-139392077D03*
%TO.P,R33,1*%
%TO.N,+3V3*%
X138577603Y-139901955D03*
%TD*%
D25*
%TO.P,D29,2,A*%
%TO.N,Net-(D29-A)*%
X138805994Y-137935114D03*
D26*
%TO.P,D29,1,K*%
%TO.N,Net-(D21-K)*%
X138102981Y-135771460D03*
%TD*%
D27*
%TO.P,R32,2*%
%TO.N,Net-(D28-A)*%
X115422397Y-139901955D03*
%TO.P,R32,1*%
%TO.N,+3V3*%
X113853153Y-139392077D03*
%TD*%
D28*
%TO.P,D28,2,A*%
%TO.N,Net-(D28-A)*%
X115194006Y-137935114D03*
D29*
%TO.P,D28,1,K*%
%TO.N,Net-(D21-K)*%
X115897019Y-135771460D03*
%TD*%
D30*
%TO.P,R31,2*%
%TO.N,Net-(D27-A)*%
X95120198Y-125781788D03*
%TO.P,R31,1*%
%TO.N,+3V3*%
X94150352Y-124446910D03*
%TD*%
D31*
%TO.P,D27,2,A*%
%TO.N,Net-(D27-A)*%
X96091506Y-124056336D03*
D32*
%TO.P,D27,1,K*%
%TO.N,Net-(D21-K)*%
X97932019Y-122719124D03*
%TD*%
D33*
%TO.P,R30,2*%
%TO.N,Net-(D26-A)*%
X86995000Y-102425000D03*
%TO.P,R30,1*%
%TO.N,+3V3*%
X86995000Y-100775000D03*
%TD*%
D34*
%TO.P,D26,2,A*%
%TO.N,Net-(D26-A)*%
X88795000Y-101600000D03*
D35*
%TO.P,D26,1,K*%
%TO.N,Net-(D21-K)*%
X91070000Y-101600000D03*
%TD*%
D36*
%TO.P,R29,2*%
%TO.N,Net-(D25-A)*%
X94150352Y-78753090D03*
%TO.P,R29,1*%
%TO.N,+3V3*%
X95120198Y-77418212D03*
%TD*%
D37*
%TO.P,D25,2,A*%
%TO.N,Net-(D25-A)*%
X96091506Y-79143664D03*
D38*
%TO.P,D25,1,K*%
%TO.N,Net-(D21-K)*%
X97932019Y-80480876D03*
%TD*%
D39*
%TO.P,R28,2*%
%TO.N,Net-(D24-A)*%
X113853153Y-63807923D03*
%TO.P,R28,1*%
%TO.N,+3V3*%
X115422397Y-63298045D03*
%TD*%
D40*
%TO.P,D24,2,A*%
%TO.N,Net-(D24-A)*%
X115194006Y-65264886D03*
D41*
%TO.P,D24,1,K*%
%TO.N,Net-(D21-K)*%
X115897019Y-67428540D03*
%TD*%
D42*
%TO.P,R27,2*%
%TO.N,Net-(D23-A)*%
X138577603Y-63298045D03*
%TO.P,R27,1*%
%TO.N,+3V3*%
X140146847Y-63807923D03*
%TD*%
D43*
%TO.P,D23,2,A*%
%TO.N,Net-(D23-A)*%
X138805994Y-65264886D03*
D44*
%TO.P,D23,1,K*%
%TO.N,Net-(D21-K)*%
X138102981Y-67428540D03*
%TD*%
D45*
%TO.P,R26,2*%
%TO.N,Net-(D22-A)*%
X158879802Y-77418212D03*
%TO.P,R26,1*%
%TO.N,+3V3*%
X159849648Y-78753090D03*
%TD*%
D46*
%TO.P,D22,2,A*%
%TO.N,Net-(D22-A)*%
X157908494Y-79143664D03*
D47*
%TO.P,D22,1,K*%
%TO.N,Net-(D21-K)*%
X156067981Y-80480876D03*
%TD*%
D48*
%TO.P,R24,2*%
%TO.N,Net-(D20-A)*%
X177480234Y-117134565D03*
%TO.P,R24,1*%
%TO.N,+3V3*%
X176970356Y-118703809D03*
%TD*%
D49*
%TO.P,D20,1,K*%
%TO.N,Net-(D1-K)*%
X173249878Y-116627497D03*
D50*
%TO.P,D20,2,A*%
%TO.N,Net-(D20-A)*%
X175413532Y-117330510D03*
%TD*%
D21*
%TO.P,R23,2*%
%TO.N,Net-(D19-A)*%
X170209110Y-131973500D03*
%TO.P,R23,1*%
%TO.N,+3V3*%
X169239264Y-133308378D03*
%TD*%
D23*
%TO.P,D19,1,K*%
%TO.N,Net-(D1-K)*%
X166342497Y-130183997D03*
D22*
%TO.P,D19,2,A*%
%TO.N,Net-(D19-A)*%
X168183010Y-131521209D03*
%TD*%
D51*
%TO.P,R22,2*%
%TO.N,Net-(D18-A)*%
X158708378Y-143839264D03*
%TO.P,R22,1*%
%TO.N,+3V3*%
X157373500Y-144809110D03*
%TD*%
D52*
%TO.P,D18,1,K*%
%TO.N,Net-(D1-K)*%
X155583997Y-140942497D03*
D53*
%TO.P,D18,2,A*%
%TO.N,Net-(D18-A)*%
X156921209Y-142783010D03*
%TD*%
D24*
%TO.P,R21,2*%
%TO.N,Net-(D17-A)*%
X144103809Y-151570356D03*
%TO.P,R21,1*%
%TO.N,+3V3*%
X142534565Y-152080234D03*
%TD*%
D26*
%TO.P,D17,1,K*%
%TO.N,Net-(D1-K)*%
X142027497Y-147849878D03*
D25*
%TO.P,D17,2,A*%
%TO.N,Net-(D17-A)*%
X142730510Y-150013532D03*
%TD*%
D11*
%TO.P,R20,2*%
%TO.N,Net-(D16-A)*%
X127825000Y-154410000D03*
%TO.P,R20,1*%
%TO.N,+3V3*%
X126175000Y-154410000D03*
%TD*%
D35*
%TO.P,D16,1,K*%
%TO.N,Net-(D1-K)*%
X127000000Y-150230000D03*
D54*
%TO.P,D16,2,A*%
%TO.N,Net-(D16-A)*%
X127000000Y-152505000D03*
%TD*%
D27*
%TO.P,R19,2*%
%TO.N,Net-(D15-A)*%
X111465435Y-152080234D03*
%TO.P,R19,1*%
%TO.N,+3V3*%
X109896191Y-151570356D03*
%TD*%
D29*
%TO.P,D15,1,K*%
%TO.N,Net-(D1-K)*%
X111972503Y-147849878D03*
D28*
%TO.P,D15,2,A*%
%TO.N,Net-(D15-A)*%
X111269490Y-150013532D03*
%TD*%
D55*
%TO.P,R18,2*%
%TO.N,Net-(D14-A)*%
X96626500Y-144809110D03*
%TO.P,R18,1*%
%TO.N,+3V3*%
X95291622Y-143839264D03*
%TD*%
D56*
%TO.P,D14,1,K*%
%TO.N,Net-(D1-K)*%
X98416003Y-140942497D03*
D57*
%TO.P,D14,2,A*%
%TO.N,Net-(D14-A)*%
X97078791Y-142783010D03*
%TD*%
D30*
%TO.P,R17,2*%
%TO.N,Net-(D13-A)*%
X84760736Y-133308378D03*
%TO.P,R17,1*%
%TO.N,+3V3*%
X83790890Y-131973500D03*
%TD*%
D32*
%TO.P,D13,1,K*%
%TO.N,Net-(D1-K)*%
X87657503Y-130183997D03*
D31*
%TO.P,D13,2,A*%
%TO.N,Net-(D13-A)*%
X85816990Y-131521209D03*
%TD*%
D58*
%TO.P,R16,2*%
%TO.N,Net-(D12-A)*%
X77029644Y-118703809D03*
%TO.P,R16,1*%
%TO.N,+3V3*%
X76519766Y-117134565D03*
%TD*%
D59*
%TO.P,D12,1,K*%
%TO.N,Net-(D1-K)*%
X80750122Y-116627497D03*
D60*
%TO.P,D12,2,A*%
%TO.N,Net-(D12-A)*%
X78586468Y-117330510D03*
%TD*%
D33*
%TO.P,R15,2*%
%TO.N,Net-(D11-A)*%
X74190000Y-102425000D03*
%TO.P,R15,1*%
%TO.N,+3V3*%
X74190000Y-100775000D03*
%TD*%
D35*
%TO.P,D11,1,K*%
%TO.N,Net-(D1-K)*%
X78370000Y-101600000D03*
D34*
%TO.P,D11,2,A*%
%TO.N,Net-(D11-A)*%
X76095000Y-101600000D03*
%TD*%
D61*
%TO.P,R14,2*%
%TO.N,Net-(D10-A)*%
X76519766Y-86065435D03*
%TO.P,R14,1*%
%TO.N,+3V3*%
X77029644Y-84496191D03*
%TD*%
D62*
%TO.P,D10,1,K*%
%TO.N,Net-(D1-K)*%
X80750122Y-86572503D03*
D63*
%TO.P,D10,2,A*%
%TO.N,Net-(D10-A)*%
X78586468Y-85869490D03*
%TD*%
D36*
%TO.P,R13,2*%
%TO.N,Net-(D9-A)*%
X83790890Y-71226500D03*
%TO.P,R13,1*%
%TO.N,+3V3*%
X84760736Y-69891622D03*
%TD*%
D38*
%TO.P,D9,1,K*%
%TO.N,Net-(D1-K)*%
X87657503Y-73016003D03*
D37*
%TO.P,D9,2,A*%
%TO.N,Net-(D9-A)*%
X85816990Y-71678791D03*
%TD*%
D64*
%TO.P,R12,2*%
%TO.N,Net-(D8-A)*%
X95291622Y-59360736D03*
%TO.P,R12,1*%
%TO.N,+3V3*%
X96626500Y-58390890D03*
%TD*%
D65*
%TO.P,D8,1,K*%
%TO.N,Net-(D1-K)*%
X98416003Y-62257503D03*
D66*
%TO.P,D8,2,A*%
%TO.N,Net-(D8-A)*%
X97078791Y-60416990D03*
%TD*%
D39*
%TO.P,R11,2*%
%TO.N,Net-(D7-A)*%
X109896191Y-51629644D03*
%TO.P,R11,1*%
%TO.N,+3V3*%
X111465435Y-51119766D03*
%TD*%
D41*
%TO.P,D7,1,K*%
%TO.N,Net-(D1-K)*%
X111972503Y-55350122D03*
D40*
%TO.P,D7,2,A*%
%TO.N,Net-(D7-A)*%
X111269490Y-53186468D03*
%TD*%
D67*
%TO.P,R10,2*%
%TO.N,Net-(D6-A)*%
X126175000Y-48790000D03*
%TO.P,R10,1*%
%TO.N,+3V3*%
X127825000Y-48790000D03*
%TD*%
D35*
%TO.P,D6,1,K*%
%TO.N,Net-(D1-K)*%
X127000000Y-52970000D03*
D54*
%TO.P,D6,2,A*%
%TO.N,Net-(D6-A)*%
X127000000Y-50695000D03*
%TD*%
D42*
%TO.P,R9,2*%
%TO.N,Net-(D5-A)*%
X142534565Y-51119766D03*
%TO.P,R9,1*%
%TO.N,+3V3*%
X144103809Y-51629644D03*
%TD*%
D44*
%TO.P,D5,1,K*%
%TO.N,Net-(D1-K)*%
X142027497Y-55350122D03*
D43*
%TO.P,D5,2,A*%
%TO.N,Net-(D5-A)*%
X142730510Y-53186468D03*
%TD*%
D68*
%TO.P,R8,2*%
%TO.N,Net-(D4-A)*%
X157373500Y-58390890D03*
%TO.P,R8,1*%
%TO.N,+3V3*%
X158708378Y-59360736D03*
%TD*%
D69*
%TO.P,D4,1,K*%
%TO.N,Net-(D1-K)*%
X155583997Y-62257503D03*
D70*
%TO.P,D4,2,A*%
%TO.N,Net-(D4-A)*%
X156921209Y-60416990D03*
%TD*%
D45*
%TO.P,R7,2*%
%TO.N,Net-(D3-A)*%
X169239264Y-69891622D03*
%TO.P,R7,1*%
%TO.N,+3V3*%
X170209110Y-71226500D03*
%TD*%
D47*
%TO.P,D3,1,K*%
%TO.N,Net-(D1-K)*%
X166342497Y-73016003D03*
D46*
%TO.P,D3,2,A*%
%TO.N,Net-(D3-A)*%
X168183010Y-71678791D03*
%TD*%
D71*
%TO.P,R6,2*%
%TO.N,Net-(D2-A)*%
X176970356Y-84496191D03*
%TO.P,R6,1*%
%TO.N,+3V3*%
X177480234Y-86065435D03*
%TD*%
D72*
%TO.P,D2,1,K*%
%TO.N,Net-(D1-K)*%
X173249878Y-86572503D03*
D73*
%TO.P,D2,2,A*%
%TO.N,Net-(D2-A)*%
X175413532Y-85869490D03*
%TD*%
D34*
%TO.P,D21,2,A*%
%TO.N,Net-(D21-A)*%
X165205000Y-101600000D03*
D35*
%TO.P,D21,1,K*%
%TO.N,Net-(D21-K)*%
X162930000Y-101600000D03*
%TD*%
D74*
%TO.P,R25,2*%
%TO.N,Net-(D21-A)*%
X167005000Y-100775000D03*
%TO.P,R25,1*%
%TO.N,+3V3*%
X167005000Y-102425000D03*
%TD*%
D75*
%TO.P,J1,1,Pin_1*%
%TO.N,+3V3*%
X136906000Y-117094000D03*
D76*
%TO.P,J1,2,Pin_2*%
%TO.N,TX*%
X136906000Y-119634000D03*
%TO.P,J1,3,Pin_3*%
%TO.N,RX*%
X136906000Y-122174000D03*
%TO.P,J1,4,Pin_4*%
%TO.N,GND*%
X136906000Y-124714000D03*
%TD*%
D35*
%TO.P,D1,1,K*%
%TO.N,Net-(D1-K)*%
X175630000Y-101600000D03*
D34*
%TO.P,D1,2,A*%
%TO.N,Net-(D1-A)*%
X177905000Y-101600000D03*
%TD*%
D77*
%TO.P,U1,41,EPAD*%
%TO.N,GND*%
X141460000Y-98700000D03*
X142860000Y-98700000D03*
X140760000Y-99400000D03*
X142160000Y-99400000D03*
X143560000Y-99400000D03*
X141460000Y-100100000D03*
X142860000Y-100100000D03*
X140760000Y-100800000D03*
X142160000Y-100800000D03*
X143560000Y-100800000D03*
X141460000Y-101500000D03*
X142860000Y-101500000D03*
%TD*%
D74*
%TO.P,R5,2*%
%TO.N,Net-(D1-A)*%
X179810000Y-100775000D03*
%TO.P,R5,1*%
%TO.N,+3V3*%
X179810000Y-102425000D03*
%TD*%
D78*
%TO.N,Net-(D40-DOUT)*%
X148977649Y-68700351D03*
%TO.N,+3V3*%
X140665200Y-88392000D03*
X137083800Y-85100200D03*
%TO.N,+5V*%
X141153300Y-87056000D03*
X141813700Y-85156000D03*
%TD*%
D79*
%TO.N,Net-(D40-DOUT)*%
X148977649Y-68700351D02*
X148977649Y-69793670D01*
%TO.N,+3V3*%
X140665200Y-88392000D02*
X140375600Y-88392000D01*
X140375600Y-88392000D02*
X137083800Y-85100200D01*
D80*
%TO.N,+5V*%
X141483500Y-85486200D02*
X141483500Y-86725800D01*
X141813700Y-85156000D02*
X141483500Y-85486200D01*
X141483500Y-86725800D02*
X141153300Y-87056000D01*
D81*
%TO.N,Net-(D21-A)*%
X158879802Y-125781788D02*
X158741456Y-124908303D01*
X157908494Y-124056336D02*
X158468857Y-124463464D01*
X158741444Y-124908252D02*
G75*
G03*
X158468835Y-124463427I-673244J-106648D01*
G01*
X138577603Y-139901955D02*
X138979100Y-139113973D01*
X138805994Y-137935114D02*
X139020034Y-138593860D01*
X138979041Y-139113908D02*
G75*
G03*
X139020005Y-138593785I-607341J309508D01*
G01*
X113853154Y-139392077D02*
X114641136Y-138990580D01*
X115194006Y-137935114D02*
X114979966Y-138593860D01*
X114641151Y-138990450D02*
G75*
G03*
X114979981Y-138593731I-309451J607350D01*
G01*
X94150352Y-124446910D02*
X95023837Y-124585256D01*
X96091506Y-124056336D02*
X95531143Y-124463464D01*
X95023843Y-124585197D02*
G75*
G03*
X95531162Y-124463420I106657J673297D01*
G01*
X86995000Y-100775000D02*
X87620346Y-101400346D01*
X88795000Y-101600000D02*
X88102353Y-101600000D01*
X87620346Y-101400346D02*
G75*
G03*
X88102353Y-101600022I482054J482046D01*
G01*
X95120198Y-77418212D02*
X95258544Y-78291697D01*
X96091506Y-79143664D02*
X95531143Y-78736536D01*
X95258625Y-78291608D02*
G75*
G03*
X95531211Y-78736464I673275J106608D01*
G01*
X115422397Y-63298045D02*
X115020900Y-64086027D01*
X115194006Y-65264886D02*
X114979966Y-64606140D01*
X115021036Y-64086071D02*
G75*
G03*
X114980130Y-64606175I607364J-309429D01*
G01*
X140146846Y-63807923D02*
X139358864Y-64209420D01*
X138805994Y-65264886D02*
X139020034Y-64606140D01*
X139358935Y-64209434D02*
G75*
G03*
X139020102Y-64606153I309465J-607366D01*
G01*
X159849648Y-78753090D02*
X158976163Y-78614744D01*
X157908494Y-79143664D02*
X158468857Y-78736536D01*
X158976222Y-78614781D02*
G75*
G03*
X158468917Y-78736575I-106622J-673319D01*
G01*
%TO.N,Net-(D20-A)*%
X177402960Y-117173939D02*
X176789353Y-117486576D01*
X176789340Y-117486571D02*
G75*
G02*
X176068441Y-117543308I-428940J841871D01*
G01*
X175413532Y-117330510D02*
X176068455Y-117543307D01*
X177480234Y-117134566D02*
X177402960Y-117173939D01*
X175490805Y-117291137D02*
X175413532Y-117330510D01*
%TO.N,Net-(D19-A)*%
X170123451Y-131987067D02*
X169443265Y-132094788D01*
X169443279Y-132094753D02*
G75*
G02*
X168740144Y-131925925I-147779J933153D01*
G01*
X168183010Y-131521208D02*
X168740121Y-131925973D01*
X170209110Y-131973500D02*
X170123451Y-131987067D01*
X168268668Y-131507641D02*
X168183010Y-131521209D01*
%TO.N,Net-(D18-A)*%
X158622719Y-143825698D02*
X157942537Y-143717958D01*
X157942481Y-143717946D02*
G75*
G02*
X157325934Y-143340098I147819J933146D01*
G01*
X156921208Y-142783010D02*
X157325973Y-143340121D01*
X158708378Y-143839265D02*
X158622719Y-143825698D01*
X157006867Y-142796576D02*
X156921209Y-142783010D01*
%TO.N,Net-(D17-A)*%
X144026535Y-151530983D02*
X143412937Y-151218328D01*
X143412899Y-151218238D02*
G75*
G02*
X142943246Y-150668374I428901J841838D01*
G01*
X142730510Y-150013532D02*
X142943307Y-150668455D01*
X144103809Y-151570356D02*
X144026535Y-151530983D01*
X142807784Y-150052904D02*
X142730510Y-150013532D01*
%TO.N,Net-(D16-A)*%
X127763675Y-154348675D02*
X127276724Y-153861710D01*
X127276724Y-153861710D02*
G75*
G02*
X126999974Y-153193627I668076J668110D01*
G01*
X127000000Y-152505000D02*
X127000000Y-153193627D01*
X127825000Y-154410000D02*
X127763675Y-154348675D01*
X127061325Y-152566324D02*
X127000000Y-152505000D01*
%TO.N,Net-(D15-A)*%
X111426061Y-152002960D02*
X111113424Y-151389353D01*
X111113488Y-151389328D02*
G75*
G02*
X111056756Y-150668431I841812J428928D01*
G01*
X111269490Y-150013532D02*
X111056693Y-150668455D01*
X111465434Y-152080234D02*
X111426061Y-152002960D01*
X111308863Y-150090805D02*
X111269490Y-150013532D01*
%TO.N,Net-(D14-A)*%
X96612933Y-144723451D02*
X96505212Y-144043265D01*
X96505177Y-144043206D02*
G75*
G02*
X96673979Y-143340051I933223J147806D01*
G01*
X97078792Y-142783010D02*
X96674027Y-143340121D01*
X96626500Y-144809110D02*
X96612933Y-144723451D01*
X97092359Y-142868668D02*
X97078791Y-142783010D01*
%TO.N,Net-(D13-A)*%
X84774302Y-133222719D02*
X84882042Y-132542537D01*
X84882142Y-132542472D02*
G75*
G02*
X85259991Y-131925925I933158J-147828D01*
G01*
X85816990Y-131521208D02*
X85259879Y-131925973D01*
X84760735Y-133308378D02*
X84774302Y-133222719D01*
X85803424Y-131606867D02*
X85816990Y-131521209D01*
%TO.N,Net-(D12-A)*%
X77069017Y-118626535D02*
X77381672Y-118012937D01*
X77381792Y-118012803D02*
G75*
G02*
X77931676Y-117543212I841808J-428997D01*
G01*
X78586468Y-117330510D02*
X77931545Y-117543307D01*
X77029644Y-118703809D02*
X77069017Y-118626535D01*
X78547096Y-117407784D02*
X78586468Y-117330510D01*
%TO.N,Net-(D11-A)*%
X74251325Y-102363675D02*
X74738290Y-101876724D01*
X74738290Y-101876724D02*
G75*
G02*
X75406373Y-101599974I668110J-668076D01*
G01*
X76095000Y-101600000D02*
X75406373Y-101600000D01*
X74190000Y-102425000D02*
X74251325Y-102363675D01*
X76033676Y-101661325D02*
X76095000Y-101600000D01*
%TO.N,Net-(D10-A)*%
X76597040Y-86026061D02*
X77210647Y-85713424D01*
X77210644Y-85713305D02*
G75*
G02*
X77931546Y-85656558I428956J-841895D01*
G01*
X78586468Y-85869490D02*
X77931545Y-85656693D01*
X76519766Y-86065434D02*
X76597040Y-86026061D01*
X78509195Y-85908863D02*
X78586468Y-85869490D01*
%TO.N,Net-(D9-A)*%
X83876549Y-71212933D02*
X84556735Y-71105212D01*
X84556806Y-71105231D02*
G75*
G02*
X85259949Y-71274047I147794J-933169D01*
G01*
X85816990Y-71678792D02*
X85259879Y-71274027D01*
X83790890Y-71226500D02*
X83876549Y-71212933D01*
X85731332Y-71692359D02*
X85816990Y-71678791D01*
%TO.N,Net-(D8-A)*%
X95377281Y-59374302D02*
X96057463Y-59482042D01*
X96057521Y-59481992D02*
G75*
G02*
X96674087Y-59859826I-147821J-933208D01*
G01*
X97078792Y-60416990D02*
X96674027Y-59859879D01*
X95291622Y-59360735D02*
X95377281Y-59374302D01*
X96993133Y-60403424D02*
X97078791Y-60416990D01*
%TO.N,Net-(D7-A)*%
X109973465Y-51669017D02*
X110587063Y-51981672D01*
X110587167Y-51981688D02*
G75*
G02*
X111056774Y-52531567I-428967J-841812D01*
G01*
X111269490Y-53186468D02*
X111056693Y-52531545D01*
X109896191Y-51629644D02*
X109973465Y-51669017D01*
X111192216Y-53147096D02*
X111269490Y-53186468D01*
%TO.N,Net-(D6-A)*%
X126236325Y-48851325D02*
X126723276Y-49338290D01*
X126723276Y-49338290D02*
G75*
G02*
X127000026Y-50006373I-668076J-668110D01*
G01*
X127000000Y-50695000D02*
X127000000Y-50006373D01*
X126175000Y-48790000D02*
X126236325Y-48851325D01*
X126938675Y-50633676D02*
X127000000Y-50695000D01*
%TO.N,Net-(D5-A)*%
X142573939Y-51197040D02*
X142886576Y-51810647D01*
X142886628Y-51810696D02*
G75*
G02*
X142943341Y-52531587I-841828J-428904D01*
G01*
X142730510Y-53186468D02*
X142943307Y-52531545D01*
X142534566Y-51119766D02*
X142573939Y-51197040D01*
X142691137Y-53109195D02*
X142730510Y-53186468D01*
%TO.N,Net-(D4-A)*%
X157387067Y-58476549D02*
X157494788Y-59156735D01*
X157494838Y-59156710D02*
G75*
G02*
X157326014Y-59859849I-933138J-147790D01*
G01*
X156921208Y-60416990D02*
X157325973Y-59859879D01*
X157373500Y-58390890D02*
X157387067Y-58476549D01*
X156907641Y-60331332D02*
X156921209Y-60416990D01*
%TO.N,Net-(D3-A)*%
X169225698Y-69977281D02*
X169117958Y-70657463D01*
X169117956Y-70657490D02*
G75*
G02*
X168740121Y-71274056I-933156J147790D01*
G01*
X168183010Y-71678792D02*
X168740121Y-71274027D01*
X169239265Y-69891622D02*
X169225698Y-69977281D01*
X168196576Y-71593133D02*
X168183010Y-71678791D01*
%TO.N,Net-(D2-A)*%
X176930983Y-84573465D02*
X176618328Y-85187063D01*
X176618342Y-85187071D02*
G75*
G02*
X176068468Y-85656693I-841842J428971D01*
G01*
X175413532Y-85869490D02*
X176068455Y-85656693D01*
X176970356Y-84496191D02*
X176930983Y-84573465D01*
X175452904Y-85792216D02*
X175413532Y-85869490D01*
%TO.N,Net-(D21-A)*%
X165205000Y-101600000D02*
X165897647Y-101600000D01*
X167005000Y-102425000D02*
X166379654Y-101799654D01*
X166379654Y-101799654D02*
G75*
G03*
X165897647Y-101599978I-482054J-482046D01*
G01*
%TO.N,Net-(D1-K)*%
X79375000Y-102425000D02*
X79436325Y-102363675D01*
%TO.N,Net-(D1-A)*%
X179748675Y-100836325D02*
X179261710Y-101323276D01*
X177905000Y-101600000D02*
X178593627Y-101600000D01*
X179810000Y-100775000D02*
X179748675Y-100836325D01*
X179261710Y-101323276D02*
G75*
G02*
X178593627Y-101600026I-668110J668076D01*
G01*
X177966324Y-101538675D02*
X177905000Y-101600000D01*
%TD*%
M02*
