M48
; DRILL file {KiCad 8.0.3} date 2024-07-21T13:05:36-0400
; FORMAT={-:-/ absolute / inch / decimal}
; #@! TF.CreationDate,2024-07-21T13:05:36-04:00
; #@! TF.GenerationSoftware,Kicad,Pcbnew,8.0.3
; #@! TF.FileFunction,Plated,1,2,PTH
FMAT,2
INCH
; #@! TA.AperFunction,Plated,PTH,ViaDrill
T1C0.0118
; #@! TA.AperFunction,Plated,PTH,ComponentDrill
T2C0.0118
; #@! TA.AperFunction,Plated,PTH,ComponentDrill
T3C0.0177
; #@! TA.AperFunction,Plated,PTH,ComponentDrill
T4C0.0236
; #@! TA.AperFunction,Plated,PTH,ComponentDrill
T5C0.0394
%
G90
G05
T1
X2.948Y-3.909
X2.955Y-4.095
X3.019Y-3.456
X3.028Y-4.539
X3.079Y-3.284
X3.079Y-4.719
X3.245Y-4.031
X3.255Y-3.883
X3.288Y-4.348
X3.291Y-5.127
X3.292Y-2.875
X3.295Y-3.666
X3.362Y-3.414
X3.379Y-4.65
X3.39Y-5.275
X3.4Y-2.723
X3.432Y-3.897
X3.444Y-4.095
X3.473Y-4.405
X3.4931Y-3.584
X3.51Y-4.899
X3.524Y-3.421
X3.5343Y-4.4026
X3.5364Y-4.5492
X3.54Y-3.61
X3.545Y-3.089
X3.5776Y-3.4642
X3.59Y-4.54
X3.624Y-4.638
X3.705Y-3.217
X3.717Y-2.825
X3.718Y-5.12
X3.719Y-2.396
X3.721Y-5.607
X3.837Y-3.032
X3.866Y-2.294
X3.866Y-5.711
X3.953Y-5.34
X3.983Y-2.614
X4.0255Y-2.7777
X4.04Y-2.83
X4.0509Y-5.1872
X4.1387Y-5.3045
X4.161Y-2.663
X4.1642Y-2.7305
X4.18Y-4.97
X4.18Y-5.27
X4.268Y-2.398
X4.279Y-2.082
X4.286Y-5.917
X4.316Y-5.58
X4.356Y-5.375
X4.38Y-5.07
X4.436Y-2.594
X4.451Y-5.967
X4.469Y-2.031
X4.632Y-5.469
X4.64Y-5.21
X4.659Y-2.311
X4.705Y-5.722
X4.72Y-2.8
X4.82Y-2.87
X4.82Y-2.96
X4.82Y-5.1
X4.83Y-2.73
X4.871Y-3.523
X4.879Y-3.977
X4.91Y-2.49
X4.91Y-4.27
X4.915Y-5.581
X4.916Y-1.954
X4.919Y-6.039
X4.93Y-2.4383
X4.93Y-3.4872
X4.93Y-5.5183
X4.94Y-5.37
X4.94Y-5.43
X4.947Y-3.318
X4.947Y-3.318
X4.96Y-3.0133
X4.96Y-3.0467
X4.97Y-4.945
X4.976Y-4.271
X4.977Y-3.727
X5.0Y-5.37
X5.0Y-5.43
X5.01Y-4.69
X5.01Y-5.09
X5.04Y-3.02
X5.06Y-5.37
X5.06Y-5.43
X5.064Y-5.745
X5.07Y-2.4817
X5.07Y-5.5617
X5.076Y-6.039
X5.079Y-1.951
X5.09Y-3.22
X5.09Y-5.51
X5.114Y-2.424
X5.15Y-5.26
X5.168Y-2.735
X5.185Y-2.272
X5.26Y-2.83
X5.26Y-2.96
X5.29Y-3.27
X5.29Y-4.78
X5.31Y-3.43
X5.34Y-3.04
X5.361Y-5.474
X5.368Y-2.537
X5.38Y-4.42
X5.4Y-3.53
X5.43Y-3.01
X5.45Y-3.42
X5.455Y-3.07
X5.47Y-4.41
X5.486Y-2.348
X5.498Y-3.731
X5.501Y-5.683
X5.507Y-4.279
X5.534Y-5.973
X5.54Y-2.87
X5.54Y-3.43
X5.55Y-2.024
X5.564Y-5.404
X5.57Y-3.6
X5.57Y-5.1
X5.58Y-3.13
X5.597Y-3.0674
X5.623Y-2.9926
X5.6422Y-2.94
X5.653Y-3.881
X5.66Y-4.293
X5.67Y-3.525
X5.68Y-2.59
X5.7Y-2.93
X5.7Y-3.415
X5.704Y-2.075
X5.726Y-5.9
X5.763Y-4.074
X5.7631Y-3.3169
X5.77Y-3.81
X5.77Y-5.32
X5.7832Y-3.0696
X5.787Y-5.382
X5.809Y-2.449
X5.82Y-2.73
X5.82Y-3.305
X5.84Y-3.135
X5.8613Y-2.6955
X5.872Y-5.525
X5.874Y-3.07
X5.895Y-3.005
X5.906Y-3.07
X5.938Y-3.07
X5.9491Y-2.8128
X5.96Y-5.17
X5.99Y-3.12
X6.005Y-2.94
X6.05Y-5.15
X6.0515Y-5.5453
X6.08Y-2.865
X6.0867Y-5.5938
X6.09Y-3.03
X6.1Y-5.51
X6.12Y-5.713
X6.125Y-2.604
X6.132Y-2.294
X6.1353Y-5.5585
X6.1485Y-5.4747
X6.151Y-4.973
X6.175Y-2.96
X6.1838Y-5.5233
X6.265Y-3.195
X6.285Y-2.65
X6.285Y-5.598
X6.299Y-5.18
X6.304Y-4.771
X6.331Y-2.457
X6.335Y-2.868
X6.41Y-3.45
X6.4224Y-4.5358
X6.43Y-2.695
X6.46Y-4.39
X6.4636Y-3.4508
X6.4657Y-3.5974
X6.474Y-4.587
X6.5069Y-4.416
X6.531Y-4.88
X6.534Y-3.601
X6.542Y-3.172
X6.563Y-4.115
X6.567Y-3.899
X6.568Y-2.661
X6.588Y-5.272
X6.644Y-4.627
X6.677Y-3.489
X6.714Y-2.866
X6.714Y-4.304
X6.74Y-3.78
X6.741Y-5.093
X6.757Y-4.082
X6.908Y-4.752
X6.921Y-3.285
X6.972Y-3.446
X6.987Y-4.516
X7.045Y-4.122
X7.046Y-3.916
T2
X5.1317Y-3.9134
X5.1317Y-3.9685
X5.1593Y-3.8858
X5.1593Y-3.9409
X5.1593Y-3.9961
X5.1869Y-3.9134
X5.1869Y-3.9685
X5.2144Y-3.8858
X5.2144Y-3.9409
X5.2144Y-3.9961
X5.242Y-3.9134
X5.242Y-3.9685
T3
X4.872Y-2.7824
X4.872Y-2.8376
X4.9094Y-2.7824
X4.9094Y-2.8376
X4.9469Y-2.7824
X4.9469Y-2.8376
X4.9823Y-2.7824
X4.9823Y-2.8376
X5.0177Y-2.7824
X5.0177Y-2.8376
X5.0531Y-2.7824
X5.0531Y-2.8376
X5.0906Y-2.7824
X5.0906Y-2.8376
X5.128Y-2.7824
X5.128Y-2.8376
T5
X4.908Y-4.4602
X5.008Y-4.4602
X5.108Y-4.4602
X5.208Y-4.4602
T4
G00X4.9439Y-2.734
M15
G01X4.8986Y-2.734
M16
G05
G00X4.9439Y-2.886
M15
G01X4.8986Y-2.886
M16
G05
G00X5.1014Y-2.734
M15
G01X5.0561Y-2.734
M16
G05
G00X5.1014Y-2.886
M15
G01X5.0561Y-2.886
M16
G05
M30
