%TF.GenerationSoftware,KiCad,Pcbnew,8.0.3*%
%TF.CreationDate,2024-07-17T21:07:09-04:00*%
%TF.ProjectId,Mainboard,4d61696e-626f-4617-9264-2e6b69636164,rev?*%
%TF.SameCoordinates,Original*%
%TF.FileFunction,Soldermask,Bot*%
%TF.FilePolarity,Negative*%
%FSLAX46Y46*%
G04 Gerber Fmt 4.6, Leading zero omitted, Abs format (unit mm)*
G04 Created by KiCad (PCBNEW 8.0.3) date 2024-07-17 21:07:09*
%MOMM*%
%LPD*%
G01*
G04 APERTURE LIST*
G04 Aperture macros list*
%AMRoundRect*
0 Rectangle with rounded corners*
0 $1 Rounding radius*
0 $2 $3 $4 $5 $6 $7 $8 $9 X,Y pos of 4 corners*
0 Add a 4 corners polygon primitive as box body*
4,1,4,$2,$3,$4,$5,$6,$7,$8,$9,$2,$3,0*
0 Add four circle primitives for the rounded corners*
1,1,$1+$1,$2,$3*
1,1,$1+$1,$4,$5*
1,1,$1+$1,$6,$7*
1,1,$1+$1,$8,$9*
0 Add four rect primitives between the rounded corners*
20,1,$1+$1,$2,$3,$4,$5,0*
20,1,$1+$1,$4,$5,$6,$7,0*
20,1,$1+$1,$6,$7,$8,$9,0*
20,1,$1+$1,$8,$9,$2,$3,0*%
G04 Aperture macros list end*
%ADD10R,1.700000X3.700000*%
%ADD11RoundRect,0.225000X-0.250000X0.225000X-0.250000X-0.225000X0.250000X-0.225000X0.250000X0.225000X0*%
%ADD12RoundRect,0.225000X0.225000X0.250000X-0.225000X0.250000X-0.225000X-0.250000X0.225000X-0.250000X0*%
%ADD13RoundRect,0.250000X-0.475000X0.250000X-0.475000X-0.250000X0.475000X-0.250000X0.475000X0.250000X0*%
%ADD14RoundRect,0.135000X-0.135000X-0.185000X0.135000X-0.185000X0.135000X0.185000X-0.135000X0.185000X0*%
%ADD15RoundRect,0.200000X0.200000X0.275000X-0.200000X0.275000X-0.200000X-0.275000X0.200000X-0.275000X0*%
%ADD16R,1.800000X1.100000*%
%ADD17RoundRect,0.140000X-0.140000X-0.170000X0.140000X-0.170000X0.140000X0.170000X-0.140000X0.170000X0*%
%ADD18R,1.700000X1.700000*%
%ADD19O,1.700000X1.700000*%
%ADD20RoundRect,0.150000X-0.512500X-0.150000X0.512500X-0.150000X0.512500X0.150000X-0.512500X0.150000X0*%
%ADD21R,0.900000X1.500000*%
%ADD22R,1.500000X0.900000*%
%ADD23C,0.600000*%
%ADD24R,3.900000X3.900000*%
%ADD25C,1.000000*%
G04 APERTURE END LIST*
D10*
%TO.C,L1*%
X140293500Y-82042000D03*
X137593500Y-82042000D03*
%TD*%
D11*
%TO.C,C2*%
X144531500Y-85077000D03*
X144531500Y-86627000D03*
%TD*%
D12*
%TO.C,C1*%
X137173000Y-113411000D03*
X135623000Y-113411000D03*
%TD*%
D13*
%TO.C,C3*%
X138049000Y-85090000D03*
X138049000Y-86990000D03*
%TD*%
%TO.C,C4*%
X136144000Y-85090000D03*
X136144000Y-86990000D03*
%TD*%
D14*
%TO.C,R36*%
X143132500Y-88392000D03*
X144152500Y-88392000D03*
%TD*%
%TO.C,R35*%
X141100500Y-88392000D03*
X142120500Y-88392000D03*
%TD*%
D15*
%TO.C,R1*%
X148907000Y-104775000D03*
X147257000Y-104775000D03*
%TD*%
D16*
%TO.C,SW1*%
X151944000Y-114228000D03*
X145744000Y-114228000D03*
X151944000Y-117928000D03*
X145744000Y-117928000D03*
%TD*%
D17*
%TO.C,C5*%
X141150400Y-89392800D03*
X142110400Y-89392800D03*
%TD*%
D18*
%TO.C,J1*%
X136906000Y-117094000D03*
D19*
X136906000Y-119634000D03*
X136906000Y-122174000D03*
X136906000Y-124714000D03*
%TD*%
D20*
%TO.C,U2*%
X140346000Y-87056000D03*
X140346000Y-86106000D03*
X140346000Y-85156000D03*
X142621000Y-85156000D03*
X142621000Y-87056000D03*
%TD*%
D21*
%TO.C,U1*%
X134440000Y-92850000D03*
X135710000Y-92850000D03*
X136980000Y-92850000D03*
X138250000Y-92850000D03*
X139520000Y-92850000D03*
X140790000Y-92850000D03*
X142060000Y-92850000D03*
X143330000Y-92850000D03*
X144600000Y-92850000D03*
X145870000Y-92850000D03*
X147140000Y-92850000D03*
X148410000Y-92850000D03*
X149680000Y-92850000D03*
X150950000Y-92850000D03*
D22*
X152200000Y-94615000D03*
X152200000Y-95885000D03*
X152200000Y-97155000D03*
X152200000Y-98425000D03*
X152200000Y-99695000D03*
X152200000Y-100965000D03*
X152200000Y-102235000D03*
X152200000Y-103505000D03*
X152200000Y-104775000D03*
X152200000Y-106045000D03*
X152200000Y-107315000D03*
X152200000Y-108585000D03*
D21*
X150950000Y-110350000D03*
X149680000Y-110350000D03*
X148410000Y-110350000D03*
X147140000Y-110350000D03*
X145870000Y-110350000D03*
X144600000Y-110350000D03*
X143330000Y-110350000D03*
X142060000Y-110350000D03*
X140790000Y-110350000D03*
X139520000Y-110350000D03*
X138250000Y-110350000D03*
X136980000Y-110350000D03*
X135710000Y-110350000D03*
X134440000Y-110350000D03*
D23*
X141460000Y-98700000D03*
X142860000Y-98700000D03*
X140760000Y-99400000D03*
X142160000Y-99400000D03*
X143560000Y-99400000D03*
X141460000Y-100100000D03*
D24*
X142160000Y-100100000D03*
D23*
X142860000Y-100100000D03*
X140760000Y-100800000D03*
X142160000Y-100800000D03*
X143560000Y-100800000D03*
X141460000Y-101500000D03*
X142860000Y-101500000D03*
%TD*%
D25*
%TO.C,TP1*%
X148976726Y-67565410D03*
%TD*%
M02*
